<svg width="300" height="100" viewBox="0 0 300 100" fill="none" xmlns="http://www.w3.org/2000/svg">
  <!-- Running figure in orange -->
  <g transform="translate(20, 10)">
    <path d="M30 15 L35 10 L37 12 L40 8 L42 10 L38 18 L35 20 L30 15 Z" fill="#FF6B35"/>
    <circle cx="38" cy="5" r="4" fill="#FF6B35"/>
    <path d="M35 20 L40 28 L42 35 L38 38 L35 35 L33 28 L35 20 Z" fill="#FF6B35"/>
    <path d="M40 28 L48 30 L50 28 L48 35 L45 38 L40 35 L40 28 Z" fill="#FF6B35"/>
    <path d="M33 28 L28 35 L25 40 L28 42 L32 40 L35 35 L33 28 Z" fill="#FF6B35"/>
    <path d="M38 38 L40 45 L38 52 L35 50 L35 45 L38 38 Z" fill="#FF6B35"/>
    <path d="M45 38 L50 42 L52 48 L48 50 L44 48 L42 45 L45 38 Z" fill="#FF6B35"/>
  </g>
  
  <!-- Blue wave -->
  <path d="M15 60 Q25 50, 35 55 Q45 60, 55 58 Q65 56, 75 60 Q85 65, 95 63 L95 75 Q85 77, 75 72 Q65 68, 55 70 Q45 72, 35 67 Q25 62, 15 72 Z" fill="#0EA5E9"/>
  <path d="M20 65 Q30 58, 40 62 Q50 66, 60 64 Q70 62, 80 66 Q88 70, 95 68 L95 78 Q88 80, 80 76 Q70 72, 60 74 Q50 76, 40 72 Q30 68, 20 75 Z" fill="#0284C7" opacity="0.7"/>
  
  <!-- VDFC Text in Pink -->
  <g fill="#EC0868">
    <!-- V -->
    <path d="M110 25 L125 65 L135 65 L150 25 L140 25 L130 55 L120 25 Z"/>
    
    <!-- D -->
    <path d="M160 25 L180 25 Q195 25, 200 35 Q205 45, 200 55 Q195 65, 180 65 L160 65 Z M170 35 L170 55 L180 55 Q188 55, 190 45 Q188 35, 180 35 Z"/>
    
    <!-- F -->
    <path d="M215 25 L255 25 L255 35 L225 35 L225 40 L250 40 L250 50 L225 50 L225 65 L215 65 Z"/>
    
    <!-- C -->
    <path d="M265 25 Q280 25, 288 35 L280 42 Q275 35, 268 35 Q260 35, 258 45 Q260 55, 268 55 Q275 55, 280 48 L288 55 Q280 65, 265 65 Q252 65, 248 45 Q252 25, 265 25 Z"/>
  </g>
</svg>
